<mxfile host="app.diagrams.net" modified="2023-10-13T11:12:58.911Z" agent="Mozilla/5.0 (Windows NT 10.0; Win64; x64) AppleWebKit/537.36 (KHTML, like Gecko) Chrome/117.0.0.0 Safari/537.36" etag="y-skxZyHQCOjzV_IHeNb" version="21.7.2" type="google">
  <diagram name="Страница — 1" id="MPLDDn5Q2Y1P8j3c91UG">
    <mxGraphModel grid="1" page="1" gridSize="10" guides="1" tooltips="1" connect="1" arrows="1" fold="1" pageScale="1" pageWidth="827" pageHeight="1169" math="0" shadow="0">
      <root>
        <mxCell id="0" />
        <mxCell id="1" parent="0" />
        <mxCell id="V7Rt1N5dwxTCuvMZSIH0-1" value="Пользователь" style="rounded=1;whiteSpace=wrap;html=1;" vertex="1" parent="1">
          <mxGeometry x="-510" y="360" width="120" height="60" as="geometry" />
        </mxCell>
        <mxCell id="V7Rt1N5dwxTCuvMZSIH0-3" value="&lt;p style=&quot;margin:0px;margin-top:4px;text-align:center;text-decoration:underline;&quot;&gt;&lt;/p&gt;&lt;p style=&quot;margin:0px;margin-left:8px;&quot;&gt;&lt;br&gt;&lt;/p&gt;" style="verticalAlign=top;align=left;overflow=fill;fontSize=12;fontFamily=Helvetica;html=1;whiteSpace=wrap;" vertex="1" parent="1">
          <mxGeometry x="-310" y="255" width="490" height="315" as="geometry" />
        </mxCell>
        <mxCell id="V7Rt1N5dwxTCuvMZSIH0-4" value="Ставит багаж" style="ellipse;whiteSpace=wrap;html=1;" vertex="1" parent="1">
          <mxGeometry x="-297" y="350" width="120" height="80" as="geometry" />
        </mxCell>
        <mxCell id="V7Rt1N5dwxTCuvMZSIH0-5" value="Проверка багажа" style="ellipse;whiteSpace=wrap;html=1;" vertex="1" parent="1">
          <mxGeometry x="-116" y="350" width="120" height="80" as="geometry" />
        </mxCell>
        <mxCell id="V7Rt1N5dwxTCuvMZSIH0-6" value="Требуется отсутствие опасных предметов" style="ellipse;whiteSpace=wrap;html=1;" vertex="1" parent="1">
          <mxGeometry x="35" y="280" width="120" height="80" as="geometry" />
        </mxCell>
        <mxCell id="V7Rt1N5dwxTCuvMZSIH0-7" value="Разрешить пропуск" style="ellipse;whiteSpace=wrap;html=1;" vertex="1" parent="1">
          <mxGeometry x="35" y="430" width="120" height="80" as="geometry" />
        </mxCell>
        <mxCell id="V7Rt1N5dwxTCuvMZSIH0-13" style="edgeStyle=orthogonalEdgeStyle;rounded=0;orthogonalLoop=1;jettySize=auto;html=1;" edge="1" parent="1" source="V7Rt1N5dwxTCuvMZSIH0-1" target="V7Rt1N5dwxTCuvMZSIH0-4">
          <mxGeometry relative="1" as="geometry" />
        </mxCell>
        <mxCell id="V7Rt1N5dwxTCuvMZSIH0-16" value="include" style="endArrow=open;endSize=12;dashed=1;html=1;rounded=0;exitX=1;exitY=0.5;exitDx=0;exitDy=0;entryX=0.006;entryY=0.487;entryDx=0;entryDy=0;entryPerimeter=0;" edge="1" parent="1" source="V7Rt1N5dwxTCuvMZSIH0-4" target="V7Rt1N5dwxTCuvMZSIH0-5">
          <mxGeometry width="160" relative="1" as="geometry">
            <mxPoint x="-250" y="520" as="sourcePoint" />
            <mxPoint x="-120" y="390" as="targetPoint" />
          </mxGeometry>
        </mxCell>
        <mxCell id="V7Rt1N5dwxTCuvMZSIH0-17" value="include" style="endArrow=open;endSize=12;dashed=1;html=1;rounded=0;exitX=1;exitY=0.5;exitDx=0;exitDy=0;entryX=0;entryY=0.5;entryDx=0;entryDy=0;" edge="1" parent="1" source="V7Rt1N5dwxTCuvMZSIH0-5" target="V7Rt1N5dwxTCuvMZSIH0-6">
          <mxGeometry width="160" relative="1" as="geometry">
            <mxPoint x="-200" y="390" as="sourcePoint" />
            <mxPoint x="-40" y="390" as="targetPoint" />
          </mxGeometry>
        </mxCell>
        <mxCell id="V7Rt1N5dwxTCuvMZSIH0-18" value="include" style="endArrow=open;endSize=12;dashed=1;html=1;rounded=0;exitX=1;exitY=0.5;exitDx=0;exitDy=0;entryX=0;entryY=0.5;entryDx=0;entryDy=0;" edge="1" parent="1" source="V7Rt1N5dwxTCuvMZSIH0-5" target="V7Rt1N5dwxTCuvMZSIH0-7">
          <mxGeometry width="160" relative="1" as="geometry">
            <mxPoint x="-90" y="370" as="sourcePoint" />
            <mxPoint x="70" y="370" as="targetPoint" />
          </mxGeometry>
        </mxCell>
      </root>
    </mxGraphModel>
  </diagram>
</mxfile>
